<?xml version="1.0" encoding="utf-8"?>
<!-- Generator: Adobe Illustrator 16.0.0, SVG Export Plug-In . SVG Version: 6.00 Build 0)  -->
<!DOCTYPE svg PUBLIC "-//W3C//DTD SVG 1.1//EN" "http://www.w3.org/Graphics/SVG/1.1/DTD/svg11.dtd">
<svg version="1.1" id="Layer_1" xmlns="http://www.w3.org/2000/svg" xmlns:xlink="http://www.w3.org/1999/xlink" x="0px" y="0px"
	 width="995.553px" height="195.046px" viewBox="0 0 995.553 195.046" enable-background="new 0 0 995.553 195.046"
	 xml:space="preserve">
<g>
	<path fill="#FFFFFF" d="M0,0v75.171h76.054L99.556,2.84l23.501,72.331h76.054l-61.528,44.703l23.502,72.331l-61.528-44.703
		l-61.529,44.703l23.502-72.331L0,75.171v119.875h995.553V75.171l-61.528,44.703l23.502,72.331l-61.528-44.703l-61.529,44.703
		l23.502-72.331l-61.528-44.703h76.054L895.998,2.84l23.501,72.331h76.054V0H0z M360.194,192.206l-61.528-44.703l-61.529,44.703
		l23.502-72.331L199.11,75.171h76.054L298.666,2.84l23.502,72.331h76.053l-61.528,44.703L360.194,192.206z M559.305,192.206
		l-61.528-44.703l-61.528,44.703l23.502-72.331l-61.529-44.703h76.054L497.776,2.84l23.502,72.331h76.054l-61.529,44.703
		L559.305,192.206z M758.416,192.206l-61.529-44.703l-61.528,44.703l23.502-72.331l-61.528-44.703h76.053L696.887,2.84
		l23.502,72.331h76.054l-61.528,44.703L758.416,192.206z"/>
</g>
</svg>
