<svg xmlns="http://www.w3.org/2000/svg" viewBox="0 0 424 290"><g fill="#006938"><circle cx="4" cy="52" r="4"/><circle cx="30" cy="49" r="4"/><circle cx="56" cy="46" r="4"/><circle cx="82" cy="43" r="4"/><circle cx="108" cy="40" r="4"/><circle cx="134" cy="37" r="4"/><circle cx="160" cy="34" r="4"/><circle cx="186" cy="31" r="4"/><circle cx="212" cy="28" r="4"/><circle cx="238" cy="25" r="4"/><circle cx="264" cy="22" r="4"/><circle cx="290" cy="19" r="4"/><circle cx="316" cy="16" r="4"/><circle cx="342" cy="13" r="4"/><circle cx="368" cy="10" r="4"/><circle cx="394" cy="7" r="4"/><circle cx="420" cy="4" r="4"/><circle cx="4" cy="78" r="4"/><circle cx="30" cy="75" r="4"/><circle cx="56" cy="72" r="4"/><circle cx="82" cy="69" r="4"/><circle cx="108" cy="66" r="4"/><circle cx="134" cy="63" r="4"/><circle cx="160" cy="60" r="4"/><circle cx="186" cy="57" r="4"/><circle cx="212" cy="54" r="4"/><circle cx="238" cy="51" r="4"/><circle cx="264" cy="48" r="4"/><circle cx="290" cy="45" r="4"/><circle cx="316" cy="42" r="4"/><circle cx="342" cy="39" r="4"/><circle cx="368" cy="36" r="4"/><circle cx="394" cy="33" r="4"/><circle cx="420" cy="30" r="4"/><circle cx="4" cy="104" r="4"/><circle cx="4" cy="208" r="4"/><circle cx="30" cy="205" r="4"/><circle cx="56" cy="202" r="4"/><circle cx="82" cy="199" r="4"/><circle cx="108" cy="196" r="4"/><circle cx="134" cy="193" r="4"/><circle cx="160" cy="190" r="4"/><circle cx="186" cy="187" r="4"/><circle cx="212" cy="184" r="4"/><circle cx="238" cy="181" r="4"/><circle cx="264" cy="178" r="4"/><circle cx="290" cy="175" r="4"/><circle cx="316" cy="172" r="4"/><circle cx="342" cy="169" r="4"/><circle cx="368" cy="166" r="4"/><circle cx="394" cy="163" r="4"/><circle cx="420" cy="160" r="4"/><circle cx="4" cy="234" r="4"/><circle cx="30" cy="231" r="4"/><circle cx="56" cy="228" r="4"/><circle cx="82" cy="225" r="4"/><circle cx="108" cy="222" r="4"/><circle cx="134" cy="219" r="4"/><circle cx="160" cy="216" r="4"/><circle cx="186" cy="213" r="4"/><circle cx="212" cy="210" r="4"/><circle cx="238" cy="207" r="4"/><circle cx="264" cy="204" r="4"/><circle cx="290" cy="201" r="4"/><circle cx="316" cy="198" r="4"/><circle cx="342" cy="195" r="4"/><circle cx="368" cy="192" r="4"/><circle cx="394" cy="189" r="4"/><circle cx="420" cy="186" r="4"/><circle cx="4" cy="260" r="4"/><circle cx="30" cy="257" r="4"/><circle cx="56" cy="254" r="4"/><circle cx="82" cy="251" r="4"/><circle cx="108" cy="248" r="4"/><circle cx="134" cy="245" r="4"/><circle cx="160" cy="242" r="4"/><circle cx="186" cy="239" r="4"/><circle cx="212" cy="236" r="4"/><circle cx="238" cy="233" r="4"/><circle cx="264" cy="230" r="4"/><circle cx="290" cy="227" r="4"/><circle cx="316" cy="224" r="4"/><circle cx="342" cy="221" r="4"/><circle cx="368" cy="218" r="4"/><circle cx="394" cy="215" r="4"/><circle cx="420" cy="212" r="4"/><circle cx="30" cy="101" r="4"/><circle cx="56" cy="98" r="4"/><circle cx="82" cy="95" r="4"/><circle cx="108" cy="92" r="4"/><circle cx="134" cy="89" r="4"/><circle cx="160" cy="86" r="4"/><circle cx="186" cy="83" r="4"/><circle cx="212" cy="80" r="4"/><circle cx="238" cy="77" r="4"/><circle cx="264" cy="74" r="4"/><circle cx="290" cy="71" r="4"/><circle cx="316" cy="68" r="4"/><circle cx="342" cy="65" r="4"/><circle cx="368" cy="62" r="4"/><circle cx="394" cy="59" r="4"/><circle cx="420" cy="56" r="4"/><circle cx="4" cy="130" r="4"/><circle cx="30" cy="127" r="4"/><circle cx="56" cy="124" r="4"/><circle cx="82" cy="121" r="4"/><circle cx="108" cy="118" r="4"/><circle cx="134" cy="115" r="4"/><circle cx="160" cy="112" r="4"/><circle cx="186" cy="109" r="4"/><circle cx="212" cy="106" r="4"/><circle cx="238" cy="103" r="4"/><circle cx="264" cy="100" r="4"/><circle cx="290" cy="97" r="4"/><circle cx="316" cy="94" r="4"/><circle cx="342" cy="91" r="4"/><circle cx="368" cy="88" r="4"/><circle cx="394" cy="85" r="4"/><circle cx="420" cy="82" r="4"/><circle cx="4" cy="156" r="4"/><circle cx="30" cy="153" r="4"/><circle cx="56" cy="150" r="4"/><circle cx="82" cy="147" r="4"/><circle cx="108" cy="144" r="4"/><circle cx="134" cy="141" r="4"/><circle cx="160" cy="138" r="4"/><circle cx="186" cy="135" r="4"/><circle cx="212" cy="132" r="4"/><circle cx="238" cy="129" r="4"/><circle cx="264" cy="126" r="4"/><circle cx="290" cy="123" r="4"/><circle cx="316" cy="120" r="4"/><circle cx="342" cy="117" r="4"/><circle cx="368" cy="114" r="4"/><circle cx="394" cy="111" r="4"/><circle cx="420" cy="108" r="4"/><circle cx="4" cy="182" r="4"/><circle cx="30" cy="179" r="4"/><circle cx="56" cy="176" r="4"/><circle cx="82" cy="173" r="4"/><circle cx="108" cy="170" r="4"/><circle cx="134" cy="167" r="4"/><circle cx="160" cy="164" r="4"/><circle cx="186" cy="161" r="4"/><circle cx="212" cy="158" r="4"/><circle cx="238" cy="155" r="4"/><circle cx="264" cy="152" r="4"/><circle cx="290" cy="149" r="4"/><circle cx="316" cy="146" r="4"/><circle cx="342" cy="143" r="4"/><circle cx="368" cy="140" r="4"/><circle cx="394" cy="137" r="4"/><circle cx="420" cy="134" r="4"/><circle cx="4" cy="286" r="4"/><circle cx="30" cy="283" r="4"/><circle cx="56" cy="280" r="4"/><circle cx="82" cy="277" r="4"/><circle cx="108" cy="274" r="4"/><circle cx="134" cy="271" r="4"/><circle cx="160" cy="268" r="4"/><circle cx="186" cy="265" r="4"/><circle cx="212" cy="262" r="4"/><circle cx="238" cy="259" r="4"/><circle cx="264" cy="256" r="4"/><circle cx="290" cy="253" r="4"/><circle cx="316" cy="250" r="4"/><circle cx="342" cy="247" r="4"/><circle cx="368" cy="244" r="4"/><circle cx="394" cy="241" r="4"/><circle cx="420" cy="238" r="4"/><circle cx="238" cy="285" r="4"/><circle cx="264" cy="282" r="4"/><circle cx="290" cy="279" r="4"/><circle cx="316" cy="276" r="4"/><circle cx="342" cy="273" r="4"/><circle cx="368" cy="270" r="4"/><circle cx="394" cy="267" r="4"/><circle cx="420" cy="264" r="4"/></g></svg>